<?xml version="1.0" encoding="UTF-8" standalone="no"?>
<svg
   width="16"
   height="16"
   version="1.1"
   id="svg1"
   sodipodi:docname="1.svg"
   inkscape:version="1.3.2 (091e20e, 2023-11-25, custom)"
   xmlns:inkscape="http://www.inkscape.org/namespaces/inkscape"
   xmlns:sodipodi="http://sodipodi.sourceforge.net/DTD/sodipodi-0.dtd"
   xmlns="http://www.w3.org/2000/svg"
   xmlns:svg="http://www.w3.org/2000/svg">
  <sodipodi:namedview
     id="namedview1"
     pagecolor="#ffffff"
     bordercolor="#000000"
     borderopacity="0.25"
     inkscape:showpageshadow="2"
     inkscape:pageopacity="0.0"
     inkscape:pagecheckerboard="0"
     inkscape:deskcolor="#d1d1d1"
     inkscape:zoom="22.627417"
     inkscape:cx="11.114835"
     inkscape:cy="9.3470677"
     inkscape:window-width="1600"
     inkscape:window-height="877"
     inkscape:window-x="-8"
     inkscape:window-y="-8"
     inkscape:window-maximized="1"
     inkscape:current-layer="svg1" />
  <defs
     id="defs1">
    <style
       id="current-color-scheme"
       type="text/css">.ColorScheme-Text { color:#ebdbb2; } .ColorScheme-Highlight { color:#458588; }</style>
  </defs>
  <path
     class="ColorScheme-Text"
     d="m 0.7204223,-0.00115656 c -0.39553317,0 -0.71323895,0.31775429 -0.71323895,0.71364704 V 3.2859934 c 0,0.3957594 0.31757258,0.713647 0.71323895,0.713647 h 2.5720313 c 0.3955331,0 0.7132388,-0.3177544 0.7132388,-0.713647 V 0.71249048 c 0,-0.39575943 -0.3175725,-0.71364704 -0.7132388,-0.71364704 z m 11.9939287,0 c -0.395533,0 -0.713239,0.31775429 -0.713239,0.71364704 V 3.2859934 c 0,0.3957594 0.317572,0.713647 0.713239,0.713647 h 2.57203 c 0.395533,0 0.71324,-0.3177544 0.71324,-0.713647 V 0.71249048 c 0,-0.39575943 -0.317572,-0.71364704 -0.71324,-0.71364704 z M 6.7173864,0.0040512 c -0.3955332,0 -0.7132389,0.31775427 -0.7132389,0.71364704 V 3.2912016 c 0,0.3957597 0.3175726,0.7136473 0.7132389,0.7136473 h 2.5720311 c 0.3955329,0 0.7132395,-0.3177545 0.7132395,-0.7136473 V 0.71769881 c 0,-0.39575941 -0.3175726,-0.71364704 -0.7132395,-0.71364704 z M 0.7204223,5.9991137 c -0.39553317,0 -0.71323895,0.3177542 -0.71323895,0.7136469 v 2.5735029 c 0,0.3957594 0.31757258,0.7136469 0.71323895,0.7136469 h 2.5720313 c 0.3955331,0 0.7132388,-0.3177542 0.7132388,-0.7136469 V 6.7127606 c 0,-0.3957593 -0.3175725,-0.7136469 -0.7132388,-0.7136469 z m 5.9969641,0 c -0.3955332,0 -0.7132389,0.3177542 -0.7132389,0.7136469 v 2.5735029 c 0,0.3957594 0.3175726,0.7136469 0.7132389,0.7136469 h 2.5720311 c 0.3955329,0 0.7132395,-0.3177542 0.7132395,-0.7136469 V 6.7127606 c 0,-0.3957593 -0.3175726,-0.7136469 -0.7132395,-0.7136469 z m 5.9969646,0 c -0.395533,0 -0.713239,0.3177542 -0.713239,0.7136469 v 2.5735029 c 0,0.3957594 0.317572,0.7136469 0.713239,0.7136469 h 2.57203 c 0.395533,0 0.71324,-0.3177542 0.71324,-0.7136469 V 6.7127606 c 0,-0.3957593 -0.317572,-0.7136469 -0.71324,-0.7136469 z M 0.7204223,11.99951 c -0.39553317,0 -0.71323895,0.317754 -0.71323895,0.713647 v 2.573502 c 0,0.39576 0.31757258,0.713647 0.71323895,0.713647 h 2.5720313 c 0.3955331,0 0.7132388,-0.317754 0.7132388,-0.713647 v -2.573502 c 0,-0.39576 -0.3175725,-0.713647 -0.7132388,-0.713647 z m 5.9969641,0 c -0.3955332,0 -0.7132389,0.317754 -0.7132389,0.713647 v 2.573502 c 0,0.39576 0.3175726,0.713647 0.7132389,0.713647 h 2.5720311 c 0.3955329,0 0.7132395,-0.317754 0.7132395,-0.713647 v -2.573502 c 0,-0.39576 -0.3175726,-0.713647 -0.7132395,-0.713647 z m 5.9969646,0 c -0.395533,0 -0.713239,0.317754 -0.713239,0.713647 v 2.573502 c 0,0.39576 0.317572,0.713647 0.713239,0.713647 h 2.57203 c 0.395533,0 0.71324,-0.317754 0.71324,-0.713647 v -2.573502 c 0,-0.39576 -0.317572,-0.713647 -0.71324,-0.713647 z"
     fill="currentColor"
     id="path1"
     style="stroke-width:1.33303" />
</svg>
