<?xml version="1.0" encoding="UTF-8" standalone="no"?>
<svg
   width="16"
   height="16"
   version="1.1"
   id="svg1"
   sodipodi:docname="2.svg"
   inkscape:version="1.3.2 (091e20e, 2023-11-25, custom)"
   xmlns:inkscape="http://www.inkscape.org/namespaces/inkscape"
   xmlns:sodipodi="http://sodipodi.sourceforge.net/DTD/sodipodi-0.dtd"
   xmlns="http://www.w3.org/2000/svg"
   xmlns:svg="http://www.w3.org/2000/svg">
  <sodipodi:namedview
     id="namedview1"
     pagecolor="#ffffff"
     bordercolor="#000000"
     borderopacity="0.25"
     inkscape:showpageshadow="2"
     inkscape:pageopacity="0.0"
     inkscape:pagecheckerboard="0"
     inkscape:deskcolor="#d1d1d1"
     inkscape:zoom="11.313709"
     inkscape:cx="2.8726213"
     inkscape:cy="-2.2539029"
     inkscape:window-width="1600"
     inkscape:window-height="877"
     inkscape:window-x="-8"
     inkscape:window-y="-8"
     inkscape:window-maximized="1"
     inkscape:current-layer="svg1"
     showgrid="true">
    <inkscape:grid
       id="grid1"
       units="px"
       originx="0"
       originy="0"
       spacingx="1"
       spacingy="1"
       empcolor="#0099e5"
       empopacity="0.30196078"
       color="#0099e5"
       opacity="0.14901961"
       empspacing="5"
       dotted="false"
       gridanglex="30"
       gridanglez="30"
       visible="true" />
  </sodipodi:namedview>
  <defs
     id="defs1">
    <style
       id="current-color-scheme"
       type="text/css">.ColorScheme-Text { color:#ebdbb2; } .ColorScheme-Highlight { color:#458588; }</style>
  </defs>
  <path
     class="ColorScheme-Text"
     d="M 1.624397,1.0022319 C 1.2781321,1.0022319 1,1.2802032 1,1.62653 v 2.2512993 c 0,0.3462102 0.2780153,0.6242982 0.624397,0.6242982 h 2.251656 c 0.346265,0 0.624397,-0.2779713 0.624397,-0.6242982 V 1.62653 c 0,-0.3462102 -0.2780153,-0.6242981 -0.624397,-0.6242981 z m 10.49995,0 c -0.346265,0 -0.624397,0.2779713 -0.624397,0.6242981 v 2.2512993 c 0,0.3462102 0.278015,0.6242982 0.624397,0.6242982 h 2.251657 c 0.346264,0 0.624395,-0.2779713 0.624395,-0.6242982 V 1.62653 c 0,-0.3462102 -0.278014,-0.6242981 -0.624395,-0.6242981 z m -5.2499749,0.00457 C 6.5281071,1.0067928 6.249975,1.2847641 6.249975,1.631091 v 2.2512993 c 0,0.3462102 0.2780154,0.6242982 0.6243971,0.6242982 h 2.251656 c 0.3462649,0 0.6243964,-0.2779713 0.6243964,-0.6242982 V 1.631091 c 0,-0.3462102 -0.2780148,-0.6242982 -0.6243964,-0.6242982 z M 1.624397,6.2512756 C 1.2781321,6.2512704 1,6.5292417 1,6.8755686 V 9.1268679 C 1,9.4730781 1.2780153,9.751166 1.624397,9.751166 h 2.251656 c 0.346265,0 0.624397,-0.2779713 0.624397,-0.6242981 V 6.8755686 c 0,-0.3462102 -0.2780153,-0.6242982 -0.624397,-0.6242982 z m 5.2499751,0 C 6.5281071,6.2512704 6.249975,6.5292417 6.249975,6.8755686 v 2.2512993 c 0,0.3462102 0.2780154,0.6242981 0.6243971,0.6242981 h 2.251656 c 0.3462649,0 0.6243964,-0.2779713 0.6243964,-0.6242981 V 6.8755686 c 0,-0.3462102 -0.2780148,-0.6242982 -0.6243964,-0.6242982 z m 5.2499749,0 c -0.346265,-5.2e-6 -0.624397,0.2779661 -0.624397,0.624293 v 2.2512993 c 0,0.3462102 0.278015,0.6242981 0.624397,0.6242981 h 2.251657 c 0.346264,0 0.624395,-0.2779713 0.624395,-0.6242981 V 6.8755686 c 0,-0.3462102 -0.278014,-0.6242982 -0.624395,-0.6242982 z M 1.624397,11.500419 C 1.2781321,11.500414 1,11.778386 1,12.124712 v 2.251299 c 0,0.34621 0.2780153,0.624299 0.624397,0.624299 h 2.251656 c 0.346265,0 0.624397,-0.277971 0.624397,-0.624299 v -2.251299 c 0,-0.34621 -0.2780153,-0.624298 -0.624397,-0.624298 z m 5.2499751,0 c -0.346265,0 -0.6243971,0.277972 -0.6243971,0.624298 v 2.251299 c 0,0.346211 0.2780154,0.624299 0.6243971,0.624299 h 2.251656 c 0.3462649,0 0.6243964,-0.277971 0.6243964,-0.624299 v -2.251299 c 0,-0.34621 -0.2780148,-0.624298 -0.6243964,-0.624298 z m 5.2499749,0 c -0.346265,0 -0.624397,0.277972 -0.624397,0.624298 v 2.251299 c 0,0.346211 0.278015,0.624299 0.624397,0.624299 h 2.251657 c 0.346264,0 0.624395,-0.277971 0.624395,-0.624299 v -2.251299 c 0,-0.34621 -0.278014,-0.624298 -0.624395,-0.624298 z"
     fill="currentColor"
     id="path1"
     style="stroke-width:1.16658" />
</svg>
