<?xml version="1.0" encoding="UTF-8" standalone="no"?>
<svg
   width="16"
   height="16"
   version="1.1"
   id="svg2"
   sodipodi:docname="op3.svg"
   inkscape:version="1.3.2 (091e20e, 2023-11-25, custom)"
   xmlns:inkscape="http://www.inkscape.org/namespaces/inkscape"
   xmlns:sodipodi="http://sodipodi.sourceforge.net/DTD/sodipodi-0.dtd"
   xmlns="http://www.w3.org/2000/svg"
   xmlns:svg="http://www.w3.org/2000/svg">
  <sodipodi:namedview
     id="namedview2"
     pagecolor="#ffffff"
     bordercolor="#000000"
     borderopacity="0.25"
     inkscape:showpageshadow="2"
     inkscape:pageopacity="0.0"
     inkscape:pagecheckerboard="0"
     inkscape:deskcolor="#d1d1d1"
     inkscape:zoom="22.627417"
     inkscape:cx="18.009126"
     inkscape:cy="8.905126"
     inkscape:window-width="1600"
     inkscape:window-height="877"
     inkscape:window-x="-8"
     inkscape:window-y="-8"
     inkscape:window-maximized="1"
     inkscape:current-layer="svg2" />
  <defs
     id="defs1">
    <style
       id="current-color-scheme"
       type="text/css">.ColorScheme-Text { color:#ebdbb2; } .ColorScheme-Highlight { color:#458588; }</style>
  </defs>
  <g
     id="g32">
    <path
       id="path1"
       class="ColorScheme-Text"
       d="M 3,1 C 0.7500135,1 1,3 1,3 v 8.677734 c 0.085256,0.01363 0.1699505,0.03354 0.2539062,0.05664 0.0718,0.02519 0.1466352,0.04369 0.2207032,0.06055 0.1300877,0.02743 0.2580765,0.06341 0.3847656,0.103516 0.11183,0.03426 0.2214799,0.06924 0.3320312,0.107421 0.09739,0.03722 0.1981974,0.07001 0.296875,0.103516 0.1049811,0.03298 0.2110437,0.05984 0.3164063,0.0918 0.06602,0.02024 0.1305868,0.04282 0.1953125,0.06641 V 3 h 10 v 8.728516 c 0.04907,-0.04711 0.09999,-0.09288 0.152344,-0.136719 0.203177,-0.172184 0.416444,-0.333415 0.642578,-0.474609 0.211447,-0.133315 0.426419,-0.259814 0.65039,-0.371094 C 14.624705,10.660513 14.807959,10.580051 15,10.527344 V 3 C 15,1.000012 13,1 13,1 Z M 4,4 V 6 H 6 V 4 Z M 7,4 V 6 H 9 V 4 Z m 3,0 v 2 h 2 V 4 Z M 4,7 V 9 H 6 V 7 Z M 7,7 V 9 H 9 V 7 Z m -3,3 v 2 h 2 v -2 z m 3,0 v 2 h 2 v -2 z m 3,0 v 2 h 2 v -2 z m -5.6777344,3 c 0.1753085,0.127376 0.3451255,0.262337 0.5019532,0.412109 0.1301425,0.124294 0.1723589,0.171958 0.2910156,0.300782 0.2955197,0.337607 0.5217975,0.697081 0.5761718,1.154297 0.00526,0.04425 0.00604,0.08824 0.00586,0.132812 h 6.5292964 c -0.182865,-0.22326 -0.322883,-0.479883 -0.402343,-0.757812 -0.01258,-0.05779 -0.02781,-0.113466 -0.03711,-0.171876 -0.04557,-0.286268 -0.01702,-0.576956 0.08008,-0.849609 0.01683,-0.0426 0.03272,-0.08485 0.05078,-0.126953 0.01369,-0.03191 0.02971,-0.0625 0.04492,-0.09375 z m 10.4199224,1.191406 c 9.17e-4,0.0035 0.003,0.0063 0.0039,0.0098 0.0064,0.0023 0.01258,0.0023 0.01953,0.0039 -0.0075,-0.0046 -0.01581,-0.0089 -0.02344,-0.01367 z"
       style="fill:#ebdbb2;fill-opacity:1" />
  </g>
  <path
     id="path1-7"
     class="ColorScheme-Text"
     d="m 2.9984372,14.998197 c -2.2499865,0 -1.99999999,-2 -1.99999999,-2 V 4.320461 c 0.0852556,-0.01363 0.16995049,-0.03354 0.25390619,-0.05664 0.0718,-0.02519 0.1466352,-0.04369 0.2207032,-0.06055 0.1300877,-0.02743 0.2580765,-0.06341 0.3847656,-0.1035159 0.11183,-0.03426 0.2214799,-0.06924 0.3320312,-0.1074209 0.09739,-0.03722 0.1981975,-0.07001 0.296875,-0.1035159 0.104981,-0.03298 0.2110436,-0.05984 0.3164063,-0.0918 0.06602,-0.02024 0.1305869,-0.04282 0.1953125,-0.06641 V 12.998197 H 12.998438 V 4.269679 c 0.04907,0.04711 0.09999,0.09288 0.152343,0.1367191 0.203177,0.1721839 0.416444,0.333415 0.642578,0.474609 0.211447,0.1333149 0.426418,0.2598141 0.65039,0.371094 0.179392,0.08558 0.362648,0.1660431 0.554689,0.21875 v 7.5273439 c 0,1.999988 -2,2 -2,2 z m 1,-3 V 9.9981958 H 5.998437 v 2.0000002 z m 2.9999998,0 V 9.9981958 h 2.0000004 v 2.0000002 z m 3.0000005,0 V 9.9981958 H 11.998439 V 11.998197 Z M 3.9984372,8.9981952 V 6.998195 H 5.998437 v 2.0000001 z m 2.9999998,0 V 6.998195 H 8.9984374 V 8.9981952 Z M 3.9984372,5.998195 v -2 H 5.998437 v 2 z m 2.9999998,0 v -2 h 2.0000004 v 2 z m 3.0000005,0 v -2 h 2.0000005 v 2 z M 4.3207027,2.9981951 C 4.4960112,2.8708192 4.6658282,2.7358582 4.8226559,2.5860862 4.9527985,2.4617922 4.9950148,2.4141281 5.1136715,2.2853042 5.4091912,1.9476971 5.635469,1.5882231 5.6898433,1.1310071 c 0.00526,-0.04425 0.00604,-0.08824 0.00586,-0.13281195 H 12.225001 C 12.042136,1.2214552 11.902117,1.4780782 11.822658,1.7560072 c -0.01258,0.05779 -0.02781,0.1134661 -0.03711,0.171876 -0.04557,0.2862681 -0.01702,0.5769561 0.08008,0.8496091 0.01683,0.0426 0.03272,0.08485 0.05078,0.1269529 0.01369,0.03191 0.02971,0.0625 0.04493,0.09375 z M 14.740624,1.8067891 c 9.16e-4,-0.0035 0.003,-0.0063 0.0039,-0.0098 0.0064,-0.0023 0.01258,-0.0023 0.01953,-0.0039 -0.0075,0.0046 -0.01581,0.0089 -0.02344,0.01367 z"
     style="color:#ebdbb2;stroke-width:1;fill:#ebdbb2;fill-opacity:1" />
  <path
     class="ColorScheme-Highlight"
     fill="currentColor"
     d="m10 7v2h2v-2z"
     id="path2"
     style="fill:#ebdbb2;fill-opacity:1" />
</svg>
