<?xml version="1.0" encoding="UTF-8" standalone="no"?>
<svg
   width="16"
   height="16"
   version="1.1"
   id="svg1"
   sodipodi:docname="op1.svg"
   inkscape:version="1.3.2 (091e20e, 2023-11-25, custom)"
   xmlns:inkscape="http://www.inkscape.org/namespaces/inkscape"
   xmlns:sodipodi="http://sodipodi.sourceforge.net/DTD/sodipodi-0.dtd"
   xmlns="http://www.w3.org/2000/svg"
   xmlns:svg="http://www.w3.org/2000/svg">
  <sodipodi:namedview
     id="namedview1"
     pagecolor="#ffffff"
     bordercolor="#000000"
     borderopacity="0.25"
     inkscape:showpageshadow="2"
     inkscape:pageopacity="0.0"
     inkscape:pagecheckerboard="0"
     inkscape:deskcolor="#d1d1d1"
     showgrid="true"
     inkscape:zoom="32"
     inkscape:cx="1.859375"
     inkscape:cy="7.203125"
     inkscape:window-width="1600"
     inkscape:window-height="877"
     inkscape:window-x="-8"
     inkscape:window-y="-8"
     inkscape:window-maximized="1"
     inkscape:current-layer="svg1">
    <inkscape:grid
       id="grid1"
       units="px"
       originx="0"
       originy="0"
       spacingx="1"
       spacingy="1"
       empcolor="#0099e5"
       empopacity="0.30196078"
       color="#0099e5"
       opacity="0.14901961"
       empspacing="5"
       dotted="false"
       gridanglex="30"
       gridanglez="30"
       visible="true" />
  </sodipodi:namedview>
  <defs
     id="defs1">
    <style
       id="current-color-scheme"
       type="text/css">.ColorScheme-Text { color:#ebdbb2; } .ColorScheme-Highlight { color:#ebdbb2; }</style>
  </defs>
  <path
     class="ColorScheme-Text"
     d="m 2.4257635,1.4979021 c -0.5144328,0 -0.928579,0.4142994 -0.928579,0.9289224 V 6.142514 c 0,0.514623 0.4141462,0.9289224 0.928579,0.9289224 h 3.7143162 c 0.5144328,0 0.9285791,-0.4142994 0.9285791,-0.9289224 V 2.4268245 c 0,-0.514623 -0.4141463,-0.9289224 -0.9285791,-0.9289224 z m 7.4286325,0 c -0.5144328,0 -0.928579,0.4142994 -0.928579,0.9289224 V 6.142514 c 0,0.514623 0.4141462,0.9289224 0.928579,0.9289224 h 3.714316 c 0.514433,0 0.92858,-0.4142994 0.92858,-0.9289224 V 2.4268245 c 0,-0.514623 -0.414147,-0.9289224 -0.92858,-0.9289224 z M 2.4257635,8.9292812 c -0.5144328,0 -0.928579,0.4142994 -0.928579,0.9289222 v 3.7156896 c 0,0.514623 0.4141462,0.928923 0.928579,0.928923 h 3.7143162 c 0.5144328,0 0.9285791,-0.4143 0.9285791,-0.928923 V 9.8582034 c 0,-0.5146228 -0.4141463,-0.9289222 -0.9285791,-0.9289222 z m 7.4286325,0 c -0.5144328,0 -0.928579,0.4142994 -0.928579,0.9289222 v 3.7156896 c 0,0.514623 0.4141462,0.928923 0.928579,0.928923 h 3.714316 c 0.514433,0 0.92858,-0.4143 0.92858,-0.928923 V 9.8582034 c 0,-0.5146228 -0.414147,-0.9289222 -0.92858,-0.9289222 z"
     fill="currentColor"
     id="path1"
     style="stroke-width:0.92875" />
</svg>
